<?xml version="1.0" encoding="utf-8"?>
<!-- Generator: Adobe Illustrator 26.0.3, SVG Export Plug-In . SVG Version: 6.00 Build 0)  -->
<svg version="1.1" id="Capa_1" xmlns="http://www.w3.org/2000/svg" xmlns:xlink="http://www.w3.org/1999/xlink" x="0px" y="0px" width="584" height="100"
	 viewBox="0 0 584 100" style="enable-background:new 0 0 584 100;" xml:space="preserve">
<style type="text/css">
	.st0{fill:#0079C8;}
	.st1{fill:#FFFFFF;}
</style>
<g>
	<rect x="11.1" y="6.8" class="st0" width="85.4" height="85.4"/>
	<path class="st1" d="M96.5,68L89,68c-3,0-5.1-2-6.4-4l-7.4,14.2c-0.4,0.8-1.2,1.2-2,1.2c-0.1,0-0.3,0-0.4,0c-1-0.2-1.7-1-1.8-2
		l-4.5-44.5l-8.7,35.7c-0.2,0.9-1,1.6-1.9,1.7c-0.9,0.1-1.8-0.3-2.3-1.2l-4.3-8C47,64.1,42.7,68,35.1,68h-24v-4.5h24
		c7.6,0,10.8-5.2,12-7.2c0.4-0.6,0.6-1,1.1-1.4c0.5-0.4,1.2-0.5,1.8-0.3c0.6,0.2,1.1,0.6,1.4,1.1l3.3,6.1L65.3,19
		c0.3-1.1,1.3-1.8,2.4-1.7c1.1,0.1,2,0.9,2.1,2l5,50.1l5.8-11.1c0.3-0.6,0.9-1.1,1.6-1.2c0.7-0.1,1.4,0.1,1.9,0.6
		c0.4,0.4,0.7,0.9,1.1,1.7c0.7,1.4,2.1,4.1,3.8,4.1l7.5,0V68z"/>
	<g>
		<g>
			<path class="st0" d="M131.4,6.8l-5.8,47h-8.2l5.8-47H131.4z"/>
			<path class="st0" d="M143.2,53.8H135l4.4-35.4h8.2l-0.7,5.6c0.7-0.9,1.4-1.7,2.2-2.4c0.8-0.7,1.7-1.4,2.7-2c1-0.6,2-1,3.2-1.4
				c1.1-0.3,2.4-0.5,3.8-0.5c4,0,7,1.2,8.8,3.7c1.9,2.5,2.6,5.8,2.1,9.9l-2.8,22.5h-8.2l2.5-20.1c0.3-2.8-0.1-4.9-1.2-6.4
				c-1.1-1.5-2.9-2.2-5.3-2.2c-2.4,0-4.4,0.8-6,2.3c-1.7,1.5-2.6,3.7-3,6.5L143.2,53.8z"/>
			<path class="st0" d="M185.5,42.7c-0.2,1.6,0,2.7,0.7,3.4c0.7,0.7,1.7,1,3.1,1c1.7,0,3.5-0.4,5.2-1.2l-0.8,6.6
				c-1.1,0.6-2.3,1-3.5,1.3c-1.2,0.3-2.6,0.5-4.1,0.5c-1.5,0-2.8-0.2-4-0.5c-1.2-0.4-2.2-0.9-3.1-1.7c-0.8-0.8-1.4-1.9-1.7-3.2
				c-0.3-1.3-0.4-3-0.1-4.9l2.3-18.7h-4.5l0.8-6.9h4.5l1.2-9.7h8.2l-1.2,9.7h9.5l-0.8,6.9h-9.5L185.5,42.7z"/>
		</g>
		<g>
			<path class="st0" d="M209.1,45.7c1.6,1.5,3.8,2.3,6.4,2.3c2,0,3.8-0.4,5.4-1.1c1.6-0.7,3.1-1.8,4.7-3.2l4.2,4.2
				c-1.9,2-4.2,3.6-6.7,4.8c-2.5,1.2-5.4,1.8-8.6,1.8c-2.5,0-4.9-0.4-7-1.3c-2.1-0.9-3.9-2.1-5.3-3.8c-1.4-1.6-2.5-3.5-3.1-5.8
				c-0.7-2.3-0.8-4.8-0.5-7.5c0.3-2.5,1-4.9,2.2-7.2c1.1-2.2,2.6-4.2,4.3-5.9c1.7-1.7,3.7-3,6-4c2.2-1,4.6-1.5,7.2-1.5
				c2.8,0,5.2,0.5,7.2,1.5c2,1,3.6,2.4,4.8,4.2c1.2,1.7,2,3.8,2.4,6.1c0.4,2.3,0.5,4.8,0.2,7.3c0,0.4-0.1,0.7-0.2,1.1
				c-0.1,0.4-0.1,0.7-0.2,1.1h-26C206.5,41.9,207.4,44.1,209.1,45.7z M225.2,33.6c0-1.3-0.1-2.5-0.4-3.7c-0.3-1.1-0.8-2.1-1.4-3
				c-0.7-0.8-1.5-1.5-2.5-2c-1-0.5-2.2-0.7-3.5-0.7c-2.5,0-4.7,0.9-6.5,2.6c-1.8,1.7-3.1,4-3.8,6.7H225.2z"/>
		</g>
		<g>
			<path class="st0" d="M266,60.3c-3.7,2.9-8.5,4.4-14.6,4.4c-5.9,0-11-1.4-15.3-4.2l3.8-6.1c1.7,1.2,3.6,2.1,5.6,2.8
				c2,0.7,4.2,1,6.6,1c3.6,0,6.5-0.9,8.7-2.8c2.1-1.8,3.4-4.6,3.9-8.2l0.3-2.8c-1.7,1.9-3.6,3.5-5.7,4.7c-2.1,1.2-4.6,1.8-7.5,1.8
				c-2.1,0-4.1-0.4-5.9-1.1c-1.8-0.7-3.4-1.8-4.7-3.3c-1.3-1.4-2.3-3.2-2.9-5.2c-0.6-2.1-0.8-4.4-0.5-7c0.3-2.6,1.1-5,2.2-7
				c1.1-2.1,2.6-3.8,4.2-5.2c1.7-1.4,3.5-2.5,5.6-3.3c2-0.8,4.1-1.1,6.1-1.1c3,0,5.4,0.6,7.2,1.8c1.8,1.2,3.3,2.6,4.5,4.3l0.7-5.4
				h8.1l-3.5,28.2C271.9,52.8,269.7,57.4,266,60.3z M265.8,30.3c-0.4-1.2-1-2.3-1.9-3.1c-0.8-0.8-1.9-1.5-3.1-2
				c-1.2-0.5-2.5-0.7-3.9-0.7c-1.4,0-2.8,0.2-4,0.7c-1.3,0.5-2.4,1.1-3.4,2c-1,0.8-1.9,1.9-2.5,3.1c-0.7,1.2-1.1,2.5-1.3,4
				c-0.2,1.5-0.1,2.8,0.3,4s1,2.2,1.8,3.1c0.8,0.9,1.8,1.5,2.9,2c1.2,0.5,2.5,0.7,3.8,0.7c1.4,0,2.7-0.2,4.1-0.7
				c1.3-0.5,2.5-1.1,3.6-2c1-0.9,1.9-1.9,2.6-3.1c0.7-1.2,1.1-2.5,1.3-4C266.3,32.9,266.2,31.5,265.8,30.3z"/>
		</g>
		<g>
			<path class="st0" d="M288.1,53.8h-8.2l4.4-35.4h8.2l-1,8c1.4-2.7,3.3-4.8,5.6-6.4c2.3-1.6,4.9-2.3,8.1-2.2l-1.1,8.6h-0.5
				c-1.8,0-3.5,0.3-5,0.9c-1.5,0.6-2.9,1.5-4.1,2.6c-1.2,1.2-2.2,2.6-3,4.4c-0.8,1.8-1.3,3.8-1.6,6.1L288.1,53.8z"/>
		</g>
		<g>
			<path class="st0" d="M371.8,42.3h-0.3l-12-22l-4.1,33.6h-8.2l5.8-47h8.8L373.4,29l17-22.2h8.8l-5.8,47h-8.2l4.1-33.7L371.8,42.3z
				"/>
		</g>
		<g>
			<path class="st0" d="M412.2,45.7c1.6,1.5,3.8,2.3,6.4,2.3c2,0,3.8-0.4,5.4-1.1c1.6-0.7,3.1-1.8,4.7-3.2L433,48
				c-1.9,2-4.2,3.6-6.7,4.8c-2.5,1.2-5.4,1.8-8.6,1.8c-2.5,0-4.9-0.4-7-1.3c-2.1-0.9-3.9-2.1-5.3-3.8c-1.4-1.6-2.5-3.5-3.1-5.8
				c-0.7-2.3-0.8-4.8-0.5-7.5c0.3-2.5,1-4.9,2.2-7.2c1.1-2.2,2.6-4.2,4.3-5.9c1.7-1.7,3.7-3,6-4c2.2-1,4.6-1.5,7.2-1.5
				c2.8,0,5.2,0.5,7.2,1.5c2,1,3.6,2.4,4.8,4.2c1.2,1.7,2,3.8,2.4,6.1c0.4,2.3,0.5,4.8,0.2,7.3c0,0.4-0.1,0.7-0.2,1.1
				c-0.1,0.4-0.1,0.7-0.2,1.1h-26C409.7,41.9,410.6,44.1,412.2,45.7z M428.3,33.6c0-1.3-0.1-2.5-0.4-3.7c-0.3-1.1-0.8-2.1-1.4-3
				c-0.7-0.8-1.5-1.5-2.5-2c-1-0.5-2.2-0.7-3.5-0.7c-2.5,0-4.7,0.9-6.5,2.6c-1.8,1.7-3.1,4-3.8,6.7H428.3z M418,13.9l8.5-11l7,3.3
				l-9.1,7.7H418z"/>
			<path class="st0" d="M466.4,53.8l0.7-5.9c-1.5,1.8-3.3,3.4-5.4,4.7c-2.1,1.3-4.6,1.9-7.4,1.9c-2.1,0-4.1-0.4-5.9-1.2
				c-1.9-0.8-3.5-2-4.8-3.6c-1.3-1.6-2.3-3.5-3-5.8c-0.7-2.3-0.8-4.9-0.4-7.9c0.4-3,1.1-5.6,2.3-7.9c1.2-2.3,2.6-4.2,4.4-5.8
				c1.7-1.6,3.6-2.8,5.7-3.6c2.1-0.8,4.2-1.2,6.3-1.2c2.9,0,5.2,0.6,7,1.9c1.8,1.3,3.2,2.7,4.3,4.4l2.3-19.1h8.2l-6,49H466.4z
				 M468.5,31.4c-0.4-1.4-1-2.6-1.8-3.6c-0.8-1-1.8-1.8-3-2.3c-1.2-0.5-2.4-0.8-3.8-0.8c-1.4,0-2.7,0.3-4,0.8
				c-1.3,0.5-2.5,1.3-3.5,2.2c-1.1,1-1.9,2.2-2.6,3.6c-0.7,1.4-1.2,3-1.4,4.8c-0.2,1.7-0.1,3.3,0.2,4.7c0.4,1.4,1,2.6,1.8,3.6
				c0.8,1,1.8,1.7,3,2.3c1.2,0.5,2.4,0.8,3.8,0.8c1.3,0,2.7-0.3,4-0.8c1.3-0.5,2.5-1.3,3.6-2.3c1.1-1,2-2.2,2.7-3.6
				c0.7-1.4,1.2-3,1.4-4.7C468.9,34.3,468.9,32.8,468.5,31.4z"/>
			<path class="st0" d="M482.9,53.8l4.4-35.4h8.2l-4.4,35.4H482.9z M487.6,12.9l0.9-7.7h8.8l-0.9,7.7H487.6z"/>
			<path class="st0" d="M524.4,52.8c-2.4,1.2-5.3,1.8-8.7,1.8c-2.6,0-5-0.5-7.1-1.4c-2.1-1-3.9-2.3-5.3-4c-1.4-1.7-2.5-3.6-3.1-5.8
				c-0.7-2.2-0.8-4.6-0.5-7.1c0.3-2.5,1.1-4.9,2.3-7.2c1.2-2.2,2.7-4.2,4.6-5.9c1.9-1.7,4-3,6.4-4c2.4-1,4.9-1.5,7.5-1.5
				c3.4,0,6.1,0.6,8.1,1.7c2.1,1.1,3.8,2.6,5.3,4.4l-5.7,5.4c-1.1-1.3-2.3-2.4-3.6-3.2c-1.3-0.8-3-1.2-5-1.2c-1.5,0-2.9,0.3-4.2,0.9
				c-1.3,0.6-2.5,1.4-3.5,2.4c-1,1-1.9,2.2-2.6,3.6c-0.7,1.4-1.1,2.8-1.3,4.4c-0.2,1.6-0.1,3.1,0.2,4.5c0.3,1.4,0.9,2.6,1.7,3.6
				c0.8,1,1.8,1.8,3.1,2.4c1.2,0.6,2.6,0.9,4.2,0.9c1.9,0,3.7-0.4,5.2-1.2c1.6-0.8,3.1-1.9,4.5-3.2l4.3,4.8
				C529,49.9,526.8,51.5,524.4,52.8z"/>
		</g>
		<g>
			<path class="st0" d="M135.1,81.2c-0.6,0.9-1.3,1.7-2.1,2.3c-0.8,0.6-1.8,1.1-2.9,1.4c-1.1,0.3-2.2,0.5-3.4,0.5h-4.3l-0.8,6.9
				h-3.7l2.6-21.4h8.4c1.2,0,2.3,0.2,3.3,0.5c1,0.3,1.8,0.8,2.4,1.4c0.6,0.6,1.1,1.4,1.3,2.3c0.3,0.9,0.3,1.9,0.2,3
				C136,79.3,135.7,80.3,135.1,81.2z M131.5,75.2c-0.8-0.6-1.8-1-3.2-1h-4.4l-0.9,7.7h4.4c1.4,0,2.6-0.4,3.5-1.1
				c0.9-0.7,1.4-1.6,1.6-2.8C132.5,76.8,132.2,75.9,131.5,75.2z"/>
		</g>
		<path class="st0" d="M136.6,84.2L136.6,84.2c0.7-5.4,4.7-8.4,8.5-8.4c2.7,0,4.2,1.3,5.1,2.8l0.3-2.5h3.7l-2,16.1h-3.7l0.3-2.7
			c-1.4,1.7-3.2,3-5.9,3C139.3,92.6,136,89.6,136.6,84.2z M149.7,84.2L149.7,84.2c0.4-3.2-1.6-5.2-4-5.2c-2.5,0-4.9,2-5.3,5.2l0,0.1
			c-0.4,3.1,1.5,5.2,4,5.2C146.8,89.4,149.3,87.3,149.7,84.2z"/>
		<g>
			<path class="st0" d="M159.9,92.2h-3.7l2-16.1h3.7l-0.4,3.6c0.7-1.2,1.5-2.2,2.5-2.9c1-0.7,2.2-1.1,3.7-1l-0.5,3.9h-0.2
				c-0.8,0-1.6,0.1-2.3,0.4c-0.7,0.3-1.3,0.7-1.9,1.2c-0.6,0.5-1,1.2-1.4,2c-0.4,0.8-0.6,1.7-0.7,2.8L159.9,92.2z"/>
		</g>
		<g>
			<path class="st0" d="M173.1,87.2c-0.1,0.7,0,1.2,0.3,1.5c0.3,0.3,0.8,0.5,1.4,0.5c0.8,0,1.6-0.2,2.4-0.5l-0.4,3
				c-0.5,0.3-1,0.5-1.6,0.6c-0.5,0.1-1.2,0.2-1.9,0.2c-0.7,0-1.3-0.1-1.8-0.2c-0.6-0.2-1-0.4-1.4-0.8c-0.4-0.4-0.6-0.9-0.8-1.5
				c-0.2-0.6-0.2-1.4-0.1-2.2l1-8.5h-2l0.4-3.1h2l0.5-4.4h3.7l-0.5,4.4h4.3l-0.4,3.1h-4.3L173.1,87.2z"/>
		</g>
		<g>
			<path class="st0" d="M184,88.5c0.7,0.7,1.7,1.1,2.9,1.1c0.9,0,1.7-0.2,2.4-0.5c0.7-0.3,1.4-0.8,2.2-1.4l1.9,1.9
				c-0.9,0.9-1.9,1.6-3,2.2c-1.1,0.5-2.4,0.8-3.9,0.8c-1.2,0-2.2-0.2-3.2-0.6c-1-0.4-1.8-1-2.4-1.7c-0.7-0.7-1.1-1.6-1.4-2.6
				c-0.3-1-0.4-2.2-0.2-3.4c0.1-1.2,0.5-2.2,1-3.3c0.5-1,1.2-1.9,2-2.7c0.8-0.8,1.7-1.4,2.7-1.8c1-0.4,2.1-0.7,3.3-0.7
				c1.3,0,2.4,0.2,3.3,0.7c0.9,0.5,1.6,1.1,2.2,1.9c0.5,0.8,0.9,1.7,1.1,2.8c0.2,1.1,0.2,2.2,0.1,3.3c0,0.2,0,0.3-0.1,0.5
				c0,0.2-0.1,0.3-0.1,0.5h-11.8C182.9,86.8,183.3,87.8,184,88.5z M191.4,83.1c0-0.6-0.1-1.1-0.2-1.7c-0.1-0.5-0.4-1-0.7-1.3
				c-0.3-0.4-0.7-0.7-1.1-0.9c-0.5-0.2-1-0.3-1.6-0.3c-1.1,0-2.1,0.4-3,1.2c-0.8,0.8-1.4,1.8-1.7,3.1H191.4z"/>
		</g>
		<g>
			<path class="st0" d="M216.1,92.2l0.3-2.7c-0.7,0.8-1.5,1.5-2.5,2.1c-1,0.6-2.1,0.9-3.4,0.9c-1,0-1.9-0.2-2.7-0.5
				c-0.8-0.4-1.6-0.9-2.2-1.6c-0.6-0.7-1.1-1.6-1.3-2.6c-0.3-1-0.4-2.2-0.2-3.6s0.5-2.5,1.1-3.6c0.5-1,1.2-1.9,2-2.6
				c0.8-0.7,1.6-1.3,2.6-1.6c0.9-0.4,1.9-0.5,2.9-0.5c1.3,0,2.4,0.3,3.2,0.9c0.8,0.6,1.5,1.2,1.9,2l1.1-8.7h3.7l-2.7,22.3H216.1z
				 M217.1,82.1c-0.2-0.6-0.4-1.2-0.8-1.6c-0.4-0.5-0.8-0.8-1.4-1.1c-0.5-0.2-1.1-0.4-1.7-0.4c-0.6,0-1.2,0.1-1.8,0.4
				c-0.6,0.2-1.1,0.6-1.6,1c-0.5,0.4-0.9,1-1.2,1.6c-0.3,0.6-0.5,1.4-0.6,2.2c-0.1,0.8-0.1,1.5,0.1,2.2c0.2,0.6,0.4,1.2,0.8,1.6
				c0.4,0.4,0.8,0.8,1.3,1c0.5,0.2,1.1,0.4,1.7,0.4c0.6,0,1.2-0.1,1.8-0.4c0.6-0.2,1.1-0.6,1.6-1.1c0.5-0.5,0.9-1,1.2-1.6
				c0.3-0.6,0.5-1.3,0.6-2.1C217.3,83.4,217.2,82.7,217.1,82.1z"/>
			<path class="st0" d="M228.6,88.5c0.7,0.7,1.7,1.1,2.9,1.1c0.9,0,1.7-0.2,2.4-0.5c0.7-0.3,1.4-0.8,2.2-1.4l1.9,1.9
				c-0.9,0.9-1.9,1.6-3,2.2c-1.1,0.5-2.4,0.8-3.9,0.8c-1.2,0-2.2-0.2-3.2-0.6c-1-0.4-1.8-1-2.4-1.7c-0.7-0.7-1.1-1.6-1.4-2.6
				c-0.3-1-0.4-2.2-0.2-3.4c0.1-1.2,0.5-2.2,1-3.3c0.5-1,1.2-1.9,2-2.7c0.8-0.8,1.7-1.4,2.7-1.8c1-0.4,2.1-0.7,3.3-0.7
				c1.3,0,2.4,0.2,3.3,0.7c0.9,0.5,1.6,1.1,2.2,1.9c0.5,0.8,0.9,1.7,1.1,2.8c0.2,1.1,0.2,2.2,0.1,3.3c0,0.2,0,0.3-0.1,0.5
				c0,0.2-0.1,0.3-0.1,0.5h-11.8C227.4,86.8,227.8,87.8,228.6,88.5z M235.9,83.1c0-0.6-0.1-1.1-0.2-1.7c-0.1-0.5-0.4-1-0.7-1.3
				c-0.3-0.4-0.7-0.7-1.1-0.9c-0.5-0.2-1-0.3-1.6-0.3c-1.1,0-2.1,0.4-3,1.2c-0.8,0.8-1.4,1.8-1.7,3.1H235.9z"/>
		</g>
		<g>
			<path class="st0" d="M266.1,72.4c1.1,1,1.6,2.3,1.4,4c-0.1,0.7-0.2,1.2-0.5,1.7c-0.2,0.5-0.5,1-0.8,1.3c-0.3,0.4-0.7,0.7-1.1,1
				c-0.4,0.3-0.8,0.5-1.2,0.7c0.6,0.2,1.1,0.5,1.6,0.8c0.5,0.3,0.9,0.6,1.2,1.1c0.3,0.4,0.6,0.9,0.7,1.4c0.1,0.6,0.2,1.2,0.1,1.9
				c-0.1,1-0.4,1.8-0.9,2.5c-0.5,0.7-1.1,1.3-1.8,1.8c-0.8,0.5-1.6,0.9-2.6,1.1c-1,0.3-2.1,0.4-3.3,0.4H249l2.6-21.4h9.6
				C263.3,70.9,265,71.4,266.1,72.4z M262.4,88.2c0.8-0.5,1.2-1.2,1.4-2.2c0.1-0.9-0.2-1.6-0.8-2.1c-0.7-0.5-1.7-0.8-3.2-0.8h-5.9
				l-0.7,5.9h6.2C260.6,88.9,261.6,88.7,262.4,88.2z M262.3,79.2c0.8-0.5,1.2-1.2,1.4-2.2c0.1-0.9-0.1-1.6-0.7-2
				c-0.6-0.5-1.5-0.7-2.7-0.7h-5.4l-0.7,5.7h5.1C260.6,79.9,261.6,79.7,262.3,79.2z"/>
			<path class="st0" d="M282.4,76.1h3.7l-2,16.1h-3.7l0.3-2.5c-0.6,0.8-1.4,1.5-2.2,2c-0.9,0.6-1.9,0.8-3.1,0.8
				c-1.8,0-3.2-0.6-4-1.7c-0.9-1.1-1.2-2.6-0.9-4.5l1.3-10.3h3.7l-1.1,9.1c-0.2,1.3,0,2.2,0.5,2.9c0.5,0.7,1.3,1,2.4,1
				c1.1,0,2-0.3,2.7-1.1c0.8-0.7,1.2-1.7,1.4-2.9L282.4,76.1z"/>
			<path class="st0" d="M304.6,87.8c-0.5,1-1.2,1.9-2,2.6c-0.8,0.7-1.7,1.3-2.6,1.6c-1,0.4-1.9,0.5-2.9,0.5c-1.3,0-2.4-0.3-3.2-0.9
				c-0.8-0.6-1.4-1.2-1.9-2l-0.9,7.4h-3.7l2.6-21h3.7l-0.3,2.7c0.7-0.9,1.5-1.6,2.5-2.2c0.9-0.6,2.1-0.9,3.4-0.9
				c1,0,1.9,0.2,2.7,0.5c0.8,0.4,1.6,0.9,2.2,1.6c0.6,0.7,1.1,1.6,1.4,2.6c0.3,1,0.4,2.2,0.2,3.6S305.2,86.7,304.6,87.8z M301.9,82
				c-0.2-0.6-0.4-1.2-0.8-1.6c-0.4-0.4-0.8-0.8-1.3-1c-0.5-0.2-1.1-0.4-1.7-0.4c-0.6,0-1.2,0.1-1.8,0.4c-0.6,0.2-1.1,0.6-1.6,1.1
				c-0.5,0.5-0.9,1-1.2,1.6c-0.3,0.6-0.5,1.3-0.6,2.1c-0.1,0.8-0.1,1.5,0.1,2.1c0.2,0.6,0.5,1.2,0.8,1.6c0.4,0.5,0.8,0.8,1.4,1.1
				c0.5,0.2,1.1,0.4,1.8,0.4c0.6,0,1.2-0.1,1.8-0.4c0.6-0.2,1.1-0.6,1.6-1c0.5-0.4,0.9-1,1.2-1.6c0.3-0.6,0.5-1.4,0.6-2.2
				C302.1,83.4,302,82.7,301.9,82z"/>
		</g>
		<path class="st0" d="M307.9,84.2L307.9,84.2c0.7-5.4,4.7-8.4,8.5-8.4c2.7,0,4.2,1.3,5.1,2.8l0.3-2.5h3.7l-2,16.1h-3.7l0.3-2.7
			c-1.4,1.7-3.2,3-5.9,3C310.5,92.6,307.2,89.6,307.9,84.2z M320.9,84.2L320.9,84.2c0.4-3.2-1.6-5.2-4-5.2c-2.5,0-4.9,2-5.3,5.2
			l0,0.1c-0.4,3.1,1.5,5.2,4,5.2C318.1,89.4,320.5,87.3,320.9,84.2z"/>
		<path class="st0" d="M306.1,36.2l0-0.1c1.4-11.8,10.2-18.4,18.7-18.4c5.8,0,9.2,2.9,11.3,6.3l0.7-5.5h8.1l-4.3,35.5h-8.1l0.7-5.9
			c-3.1,3.7-7.1,6.7-12.9,6.7C312,54.6,304.7,48,306.1,36.2z M334.7,36.2l0-0.1c0.8-6.9-3.4-11.4-8.9-11.4
			c-5.6,0-10.7,4.3-11.6,11.4l0,0.1c-0.8,6.9,3.3,11.4,8.8,11.4C328.5,47.6,333.9,43,334.7,36.2z"/>
		<path class="st0" d="M534.2,36.2l0-0.1c1.4-11.8,10.2-18.4,18.6-18.4c5.8,0,9.1,2.9,11.3,6.2l0.7-5.5h8.1l-4.3,35.5h-8.1l0.7-5.9
			c-3.1,3.7-7.1,6.6-12.9,6.6C540,54.6,532.7,48,534.2,36.2z M562.8,36.2l0-0.1c0.8-6.8-3.4-11.3-8.8-11.3
			c-5.6,0-10.7,4.3-11.6,11.3l0,0.1c-0.8,6.8,3.3,11.3,8.8,11.3C556.6,47.6,561.9,43,562.8,36.2z"/>
	</g>
</g>
</svg>
